<svg viewBox="0 0 24 24" preserveAspectRatio="xMidYMid" xmlns="http://www.w3.org/2000/svg"><path d="M16.354 23.17c.02-.006.039-.014.059-.021C28.628 18.296 25.249 0 12 0 5.351 0 0 5.42 0 12c0 8.327 8.434 14.269 16.354 11.17zM5.281 20.059c.852-1.432 3.609-5.472 8.315-6.866a25.274 25.274 0 011.742 8.755 10.433 10.433 0 01-10.057-1.889zm11.532 1.263a26.925 26.925 0 00-1.71-8.467c2.082-.325 4.492-.108 7.225.987a10.524 10.524 0 01-5.515 7.48zm5.672-9.031c-3.01-1.131-5.663-1.272-7.959-.834-.355-.8-.728-1.569-1.123-2.277 3.523-1.407 5.605-3.122 6.537-4.03a10.365 10.365 0 012.545 7.141zm-3.61-8.209c-.848.807-2.845 2.437-6.26 3.77-1.674-2.648-3.464-4.516-4.598-5.562a10.438 10.438 0 0110.858 1.792zM6.583 3.023c.856.753 2.735 2.561 4.548 5.357-2.49.802-5.612 1.391-9.409 1.474.604-2.894 2.408-5.346 4.861-6.831zM1.532 11.36c4.25-.069 7.69-.74 10.409-1.648.376.659.733 1.377 1.076 2.123-4.735 1.508-7.694 5.401-8.827 7.159a10.363 10.363 0 01-2.658-7.634z" fill="currentColor"/></svg>