<svg viewBox="0 0 24 24" preserveAspectRatio="xMidYMid" xmlns="http://www.w3.org/2000/svg"><path d="M12 24c6.617 0 12-5.384 12-12S18.616 0 12 0 0 5.383 0 12s5.383 12 12 12zm0-22.5c5.788 0 10.5 4.71 10.5 10.5 0 5.788-4.712 10.5-10.5 10.5-5.79 0-10.5-4.712-10.5-10.5C1.5 6.21 6.21 1.5 12 1.5z" fill="currentColor"/><path d="M17.742 5.071A8.955 8.955 0 0012 3c-.63 0-1.245.066-1.839.189a42.716 42.716 0 012.957 4.829 21.24 21.24 0 004.624-2.947zm-2.876 6.781a16.748 16.748 0 016.12-.107 8.948 8.948 0 00-2.175-5.616 22.832 22.832 0 01-5.045 3.222c.394.822.76 1.655 1.1 2.501zm-3.148-3.267a41.114 41.114 0 00-3.063-4.936 9.007 9.007 0 00-5.417 6.322 21.238 21.238 0 008.48-1.386zm1.686 3.64a39.274 39.274 0 00-1.014-2.281 22.588 22.588 0 01-8.195 1.564c-.388 0-.778-.024-1.168-.045-.01.178-.027.356-.027.537 0 2.21.8 4.232 2.121 5.798a16.87 16.87 0 018.283-5.573zm2.013 1.046a42.648 42.648 0 011.688 6.137 8.986 8.986 0 003.799-6.162 15.301 15.301 0 00-5.487.025zm-9.232 5.593a8.957 8.957 0 009.545 1.319 40.69 40.69 0 00-1.787-6.563 15.357 15.357 0 00-7.758 5.244z" fill="currentColor"/></svg>