<svg viewBox="0 0 24 24" preserveAspectRatio="xMidYMid" xmlns="http://www.w3.org/2000/svg"><path d="M12.29 21.499c3.73 0 8.94.09 10.835-3.701.715-1.449.875-3.122.875-4.7h-.001c0-2.073-.575-4.047-1.95-5.651a7.558 7.558 0 00.385-2.385c0-1.064-.24-1.598-.73-2.563-2.24 0-3.69.42-5.39 1.742a17.46 17.46 0 00-4.02-.455c-1.495 0-2.986.154-4.435.495C6.134 2.945 4.684 2.5 2.419 2.5c-.484.965-.729 1.499-.729 2.563 0 .811.125 1.632.385 2.414C.695 9.066 0 11.025 0 13.098c0 1.578.281 3.266 1.01 4.701 1.97 3.835 7.49 3.7 11.28 3.7zm-5.289-9.99c.95 0 1.865.168 2.8.297 3.418.52 5.215-.297 7.31-.297 2.339 0 3.675 1.915 3.675 4.087 0 4.349-4.015 5.012-7.53 5.012h-2.41c-3.5 0-7.52-.667-7.52-5.012 0-2.172 1.334-4.087 3.675-4.087z" fill="currentColor"/><path d="M16.655 18.323c1.29 0 1.835-1.692 1.835-2.727s-.545-2.727-1.835-2.727-1.835 1.692-1.835 2.727.545 2.727 1.835 2.727zm-9.185 0c1.29 0 1.835-1.692 1.835-2.727S8.759 12.87 7.47 12.87s-1.835 1.692-1.835 2.727.545 2.726 1.835 2.726z" fill="currentColor"/></svg>