<svg viewBox="0 0 24 24" preserveAspectRatio="xMidYMid" xmlns="http://www.w3.org/2000/svg"><path d="M.096 11.243c.267.777 1.023 1.286 1.8 1.318.365.054.643-.086 3.092-.9l1.623 4.822-2.432.809c-1.018.333-1.559 1.441-1.232 2.46.267.777 1.023 1.286 1.8 1.318.365.054.643-.086 3.092-.901l.841 2.518c.317.905 1.323 1.553 2.464 1.226 1.023-.333 1.559-1.436 1.232-2.46l-.841-2.518 5.014-1.677.841 2.518c.317.905 1.323 1.553 2.464 1.226 1.023-.333 1.559-1.436 1.232-2.46l-.841-2.518 2.432-.809c1.018-.321 1.559-1.431 1.226-2.448l-.001-.001c-.333-1.018-1.441-1.559-2.464-1.226l-2.432.809-1.623-4.822 2.432-.809c1.023-.333 1.559-1.436 1.232-2.46-.333-1.018-1.441-1.559-2.464-1.226l-2.433.81-.841-2.518C14.976.306 13.868-.235 12.845.098s-1.559 1.436-1.232 2.46l.841 2.518L7.45 6.747l-.841-2.518C6.276 3.21 5.168 2.67 4.145 3.002c-1.023.333-1.559 1.436-1.232 2.46l.841 2.518-2.426.803c-1.023.333-1.559 1.436-1.232 2.46zm13.578-2.455l1.623 4.833-5.009 1.677-1.623-4.832z" fill="currentColor"/></svg>