<svg viewBox="0 0 24 24" preserveAspectRatio="xMidYMid" xmlns="http://www.w3.org/2000/svg"><path d="M17.903 1.75c-3.349 0-6.081 2.696-6.107 6.02l-3.803 5.427c-1.061-.096-1.976.123-2.785.614L0 11.714v5.727l3.08 1.233a4.567 4.567 0 004.447 3.576c2.358 0 4.312-1.803 4.527-4.099l5.855-4.259c3.359 0 6.091-2.711 6.091-6.073l-.001-.001c0-3.346-2.732-6.068-6.096-6.068zM4.569 19.271c.546.208 1.098.437 1.645.651a2.652 2.652 0 003.466-1.468 2.638 2.638 0 00-1.483-3.442l-1.393-.56c2.074-.46 4.071 1.094 4.072 3.255-.001 1.852-4.678 4.608-6.307 1.564zm13.34-7.385c-2.261 0-4.098-1.815-4.098-4.067 0-2.242 1.832-4.067 4.098-4.067 2.245 0 4.082 1.825 4.082 4.067a4.07 4.07 0 01-4.082 4.067z" fill="currentColor"/><path d="M17.92 4.556c-1.805 0-3.267 1.457-3.267 3.255s1.457 3.255 3.267 3.255c1.794 0 3.267-1.452 3.267-3.255s-1.473-3.255-3.267-3.255z" fill="currentColor"/></svg>