<svg xmlns="http://www.w3.org/2000/svg" viewBox="0 0 24 24" preserveAspectRatio="xMidYMid"><path d="M22.5 6c-1.4 0-2.6-.5-3.7-1.2-1.2-.9-2-2.2-2.3-3.7-.1-.4-.1-.7-.1-1.1h-3.9v16.6c0 1.6-1 2.9-2.4 3.4-.4.1-.9.2-1.3.2-.6 0-1.1-.2-1.6-.5-1-.6-1.7-1.7-1.7-3C5.4 14.6 7 13 9 13c.4 0 .8.1 1.1.2v-4c-.4 0-.7-.1-1.1-.1-2.2 0-4.2.9-5.6 2.5-1.1 1.2-1.8 2.8-1.9 4.4-.1 2.2.7 4.2 2.2 5.7.2.2.5.4.7.6C5.7 23.5 7.3 24 9 24c.4 0 .8 0 1.1-.1 1.6-.2 3-1 4.2-2.1 1.4-1.4 2.2-3.2 2.2-5.2V7.8c.7.5 1.4.9 2.2 1.3 1.2.5 2.5.8 3.9.8V7.1L22.5 6z" fill="currentColor"/></svg>