<svg xmlns="http://www.w3.org/2000/svg" viewBox="0 0 24 24"><path d="M20.5 3.5C18.2 1.2 15.2 0 12 0S5.8 1.2 3.5 3.5 0 8.8 0 12s1.2 6.2 3.5 8.5S8.8 24 12 24s6.2-1.2 8.5-3.5S24 15.2 24 12s-1.2-6.2-3.5-8.5zm-16 1c1.1-1.1 2.3-1.9 3.6-2.4-.4.4-.7 1-1 1.5-.3.7-.6 1.5-.9 2.3-.9-.2-1.7-.4-2.4-.6.2-.3.4-.5.7-.8zm-1.6 2c.9.3 1.9.5 2.9.7-.3 1.3-.5 2.6-.5 4.1H1.4c.1-1.7.7-3.3 1.5-4.8zm-.1 10.8c-.8-1.4-1.3-3-1.4-4.6h3.9c0 1.4.2 2.7.5 3.9-1.1.2-2.1.5-3 .7zm1.7 2.2c-.3-.3-.6-.6-.8-.9.8-.2 1.6-.4 2.5-.5.3.8.6 1.6.9 2.2.3.6.7 1.2 1.1 1.7-1.3-.6-2.6-1.4-3.7-2.5zm6.8 2.9c-1.1-.3-2.1-1.3-2.9-2.8-.3-.5-.5-1.1-.8-1.8 1.2-.1 2.4-.2 3.7-.2v4.8zm0-6.2c-1.4 0-2.8.1-4.1.3-.2-1.2-.4-2.5-.5-3.8h4.6v3.5zm0-4.9H6.7c0-1.4.2-2.7.5-3.9 1.3.2 2.6.3 4.1.3v3.6zm0-5c-1.3 0-2.5-.1-3.7-.2.2-.6.5-1.2.8-1.7.8-1.5 1.8-2.5 2.9-2.8v4.7zm9.8.3c.8 1.4 1.3 3 1.4 4.7h-3.9c0-1.4-.2-2.8-.5-4 1.1-.2 2.1-.4 3-.7zm-1.6-2.1c.3.3.5.6.8.9-.8.2-1.6.4-2.5.5-.3-.8-.6-1.6-.9-2.2-.3-.6-.6-1.1-1-1.5 1.3.5 2.5 1.3 3.6 2.3zm-6.8 8.2h4.6c0 1.3-.2 2.6-.5 3.8-1.3-.2-2.6-.3-4.1-.3v-3.5zm0-1.4V7.7c1.4 0 2.8-.1 4.1-.3.3 1.2.5 2.5.5 3.8l-4.6.1zm0-9.8c1.1.3 2.1 1.3 2.9 2.8.3.5.5 1.1.8 1.8-1.2.1-2.4.2-3.7.2V1.5zm0 20.9v-4.8c1.3 0 2.5.1 3.7.2-.2.6-.5 1.2-.7 1.7-.9 1.6-1.9 2.6-3 2.9zm6.8-2.9c-1.1 1.1-2.4 1.9-3.7 2.4.4-.5.8-1 1.1-1.7.4-.7.7-1.4.9-2.2.9.2 1.8.3 2.5.6-.3.3-.5.6-.8.9zm1.6-2.1c-.9-.3-1.9-.5-3-.7.3-1.3.5-2.6.5-4h3.9c0 1.7-.5 3.3-1.4 4.7z" fill="currentColor"/></svg>